<svg width="85" height="85" viewBox="0 0 85 85" fill="none" xmlns="http://www.w3.org/2000/svg">
<path d="M10.625 42.5H42.5V47.8125H10.625V42.5ZM5.3125 29.2188H31.875V34.5312H5.3125V29.2188Z" fill="#94B1EC"/>
<path d="M79.4723 44.1097L71.5036 25.5159C71.2991 25.038 70.9587 24.6307 70.5248 24.3445C70.0908 24.0584 69.5823 23.906 69.0625 23.9062H61.0938V18.5937C61.0938 17.8893 60.8139 17.2136 60.3158 16.7155C59.8176 16.2174 59.142 15.9375 58.4375 15.9375H15.9375V21.25H55.7813V54.6019C54.5709 55.3047 53.5116 56.2402 52.6646 57.3544C51.8175 58.4686 51.1994 59.7395 50.8459 61.0937H34.1541C33.5076 58.5898 31.97 56.4076 29.8297 54.9562C27.6893 53.5048 25.0931 52.8838 22.5277 53.2097C19.9622 53.5355 17.6037 54.7859 15.8941 56.7263C14.1846 58.6667 13.2415 61.1639 13.2415 63.75C13.2415 66.3361 14.1846 68.8333 15.8941 70.7737C17.6037 72.7141 19.9622 73.9645 22.5277 74.2903C25.0931 74.6162 27.6893 73.9952 29.8297 72.5438C31.97 71.0924 33.5076 68.9102 34.1541 66.4062H50.8459C51.4238 68.6859 52.7452 70.7079 54.6013 72.1522C56.4573 73.5965 58.742 74.3806 61.0938 74.3806C63.4455 74.3806 65.7302 73.5965 67.5862 72.1522C69.4423 70.7079 70.7637 68.6859 71.3416 66.4062H77.0313C77.7357 66.4062 78.4114 66.1264 78.9095 65.6283C79.4077 65.1301 79.6875 64.4545 79.6875 63.75V45.1562C79.6876 44.7964 79.6144 44.4403 79.4723 44.1097ZM23.9063 69.0625C22.8555 69.0625 21.8284 68.7509 20.9548 68.1672C20.0812 67.5834 19.4002 66.7537 18.9981 65.783C18.5961 64.8123 18.4908 63.7441 18.6958 62.7136C18.9008 61.6831 19.4068 60.7365 20.1497 59.9935C20.8927 59.2505 21.8393 58.7446 22.8698 58.5396C23.9004 58.3346 24.9685 58.4398 25.9393 58.8419C26.91 59.244 27.7397 59.9249 28.3234 60.7985C28.9072 61.6722 29.2188 62.6993 29.2188 63.75C29.2173 65.1585 28.6572 66.509 27.6612 67.5049C26.6652 68.5009 25.3148 69.0611 23.9063 69.0625ZM61.0938 29.2187H67.3094L73.0044 42.5H61.0938V29.2187ZM61.0938 69.0625C60.043 69.0625 59.0159 68.7509 58.1423 68.1672C57.2687 67.5834 56.5877 66.7537 56.1856 65.783C55.7836 64.8123 55.6783 63.7441 55.8833 62.7136C56.0883 61.6831 56.5943 60.7365 57.3372 59.9935C58.0802 59.2505 59.0268 58.7446 60.0573 58.5396C61.0879 58.3346 62.156 58.4398 63.1268 58.8419C64.0975 59.244 64.9272 59.9249 65.5109 60.7985C66.0947 61.6722 66.4063 62.6993 66.4063 63.75C66.4049 65.1585 65.8447 66.509 64.8487 67.5049C63.8527 68.5009 62.5023 69.0611 61.0938 69.0625ZM74.375 61.0937H71.3416C70.7565 58.8185 69.4329 56.8017 67.5783 55.3596C65.7237 53.9175 63.443 53.1315 61.0938 53.125V47.8125H74.375V61.0937Z" fill="#94B1EC"/>
</svg>
