<svg width="109" height="26" viewBox="0 0 109 26" fill="none" xmlns="http://www.w3.org/2000/svg">
<g clip-path="url(#clip0_167_450)">
<path d="M33.0992 6.68662C33.0627 9.6003 35.6648 11.2262 37.625 12.1929C39.6389 13.1847 40.3153 13.8208 40.3073 14.7079C40.2923 16.0653 38.7009 16.6644 37.2117 16.6877C34.6136 16.7284 33.103 15.9777 31.902 15.41L30.9661 19.8425C32.171 20.4044 34.4021 20.8945 36.7158 20.916C42.1467 20.916 45.6998 18.2027 45.719 13.9959C45.7403 8.65682 38.4224 8.36131 38.4724 5.9749C38.4897 5.25128 39.1719 4.47909 40.6668 4.28275C41.4068 4.18357 43.4494 4.10767 45.7653 5.18702L46.6742 0.898464C45.4288 0.439499 43.8281 1.71661e-05 41.8353 1.71661e-05C36.7235 1.71661e-05 33.1282 2.75026 33.0992 6.68662ZM55.4083 0.369415C54.4166 0.369415 53.5809 0.954884 53.2079 1.85333L45.4501 20.601H50.877L51.957 17.5803H58.5886L59.2151 20.601H63.9983L59.8243 0.369415H55.4083ZM56.1675 5.83473L57.7337 13.4319H53.4444L56.1675 5.83473ZM26.5193 0.369667L22.2415 20.6008H27.413L31.6888 0.369162H26.5193M18.869 0.369162L13.4862 14.1398L11.3089 2.43121C11.0534 1.12415 10.0444 0.369415 8.92399 0.369415H0.124952L0.00170898 0.956907C1.80811 1.35363 3.86051 1.9935 5.10394 2.67815C5.8649 3.09638 6.08189 3.46198 6.33187 4.45581L10.4559 20.601H15.9209L24.2994 0.369415L18.869 0.369162Z" fill="url(#paint0_linear_167_450)"/>
</g>
<g clip-path="url(#clip1_167_450)">
<path d="M81.1816 25.8709V24.15C81.1816 23.4903 80.7734 23.0601 80.0736 23.0601C79.7238 23.0601 79.3448 23.1749 79.0824 23.5477C78.8784 23.2322 78.5869 23.0601 78.1495 23.0601C77.8579 23.0601 77.5665 23.1461 77.3332 23.4616V23.1175H76.7209V25.8709H77.3332V24.3507C77.3332 23.8633 77.5956 23.6337 78.0038 23.6337C78.4118 23.6337 78.6161 23.8919 78.6161 24.3507V25.8709H79.2283V24.3507C79.2283 23.8633 79.5197 23.6337 79.8987 23.6337C80.307 23.6337 80.511 23.8919 80.511 24.3507V25.8709H81.1816ZM90.2484 23.1175H89.2573V22.2858H88.645V23.1175H88.0911V23.6623H88.6449V24.9244C88.6449 25.5555 88.9073 25.9282 89.6071 25.9282C89.8695 25.9282 90.1609 25.8423 90.3651 25.7276L90.1901 25.2112C90.0152 25.3259 89.8112 25.3547 89.6654 25.3547C89.3739 25.3547 89.2573 25.1826 89.2573 24.8957V23.6623H90.2484V23.1175ZM95.4379 23.06C95.0881 23.06 94.8549 23.2322 94.7091 23.4616V23.1175H94.0968V25.8709H94.7091V24.3221C94.7091 23.8633 94.913 23.6051 95.2921 23.6051C95.4087 23.6051 95.5545 23.6338 95.6711 23.6625L95.846 23.0889C95.7294 23.0601 95.5545 23.0601 95.4379 23.0601V23.06ZM87.5955 23.3469C87.3038 23.1461 86.8957 23.0601 86.4584 23.0601C85.7588 23.0601 85.2923 23.4043 85.2923 23.9492C85.2923 24.4082 85.6422 24.6663 86.2544 24.7524L86.5459 24.7811C86.8666 24.8383 87.0415 24.9244 87.0415 25.0679C87.0415 25.2686 86.8083 25.412 86.4001 25.412C85.992 25.412 85.6712 25.2686 85.4671 25.1252L85.1756 25.5841C85.4963 25.8135 85.9337 25.9282 86.3709 25.9282C87.1872 25.9282 87.6538 25.5555 87.6538 25.0391C87.6538 24.5515 87.2747 24.2934 86.6916 24.2074L86.4001 24.1787C86.1377 24.1499 85.9337 24.0927 85.9337 23.9206C85.9337 23.7198 86.1377 23.6051 86.4584 23.6051C86.8083 23.6051 87.1581 23.7484 87.333 23.8345L87.5955 23.3469ZM103.863 23.0601C103.514 23.0601 103.28 23.2322 103.134 23.4616V23.1175H102.522V25.8709H103.134V24.3221C103.134 23.8633 103.339 23.6051 103.718 23.6051C103.834 23.6051 103.98 23.6338 104.097 23.6625L104.272 23.0889C104.155 23.0601 103.98 23.0601 103.863 23.0601ZM96.0501 24.4942C96.0501 25.3259 96.6331 25.9282 97.537 25.9282C97.9451 25.9282 98.2366 25.8423 98.5281 25.6128L98.2366 25.1252C98.0034 25.2973 97.7702 25.3833 97.5078 25.3833C97.0122 25.3833 96.6624 25.0391 96.6624 24.4942C96.6624 23.978 97.0122 23.6337 97.5078 23.6051C97.7702 23.6051 98.0034 23.6911 98.2366 23.8633L98.5281 23.3757C98.2366 23.1461 97.9451 23.0601 97.537 23.0601C96.6331 23.0601 96.0501 23.6625 96.0501 24.4942ZM101.706 24.4942V23.1175H101.094V23.4616C100.89 23.2036 100.598 23.0601 100.219 23.0601C99.432 23.0601 98.8198 23.6625 98.8198 24.4942C98.8198 25.3259 99.432 25.9282 100.219 25.9282C100.627 25.9282 100.919 25.7849 101.094 25.5267V25.8709H101.706V24.4942ZM99.4611 24.4942C99.4611 24.0066 99.7818 23.6051 100.307 23.6051C100.802 23.6051 101.152 23.978 101.152 24.4942C101.152 24.9818 100.802 25.3833 100.307 25.3833C99.7818 25.3545 99.4611 24.9818 99.4611 24.4942ZM92.1435 23.0601C91.3272 23.0601 90.744 23.6337 90.744 24.4942C90.744 25.3547 91.327 25.9282 92.1726 25.9282C92.5807 25.9282 92.989 25.8135 93.3097 25.5555L93.018 25.1252C92.7848 25.2973 92.4933 25.412 92.2018 25.412C91.8228 25.412 91.4438 25.24 91.3562 24.7522H93.4263V24.5229C93.4555 23.6337 92.9308 23.0601 92.1435 23.0601ZM92.1435 23.5764C92.5224 23.5764 92.785 23.8059 92.8431 24.2361H91.3855C91.4438 23.8633 91.7062 23.5764 92.1435 23.5764ZM107.333 24.4942V22.0276H106.721V23.4616C106.516 23.2036 106.225 23.0601 105.846 23.0601C105.059 23.0601 104.446 23.6625 104.446 24.4942C104.446 25.3259 105.059 25.9282 105.846 25.9282C106.254 25.9282 106.546 25.7849 106.721 25.5267V25.8709H107.333V24.4942ZM105.088 24.4942C105.088 24.0066 105.409 23.6051 105.933 23.6051C106.429 23.6051 106.779 23.978 106.779 24.4942C106.779 24.9818 106.429 25.3833 105.933 25.3833C105.409 25.3545 105.088 24.9818 105.088 24.4942ZM84.6217 24.4942V23.1175H84.0094V23.4616C83.8053 23.2036 83.5138 23.0601 83.1348 23.0601C82.3477 23.0601 81.7354 23.6625 81.7354 24.4942C81.7354 25.3259 82.3477 25.9282 83.1348 25.9282C83.543 25.9282 83.8345 25.7849 84.0094 25.5267V25.8709H84.6217V24.4942ZM82.3477 24.4942C82.3477 24.0066 82.6684 23.6051 83.1931 23.6051C83.6887 23.6051 84.0387 23.978 84.0387 24.4942C84.0387 24.9818 83.6887 25.3833 83.1931 25.3833C82.6684 25.3545 82.3477 24.9818 82.3477 24.4942Z" fill="black"/>
<path d="M87.3914 2.2085H96.5749V18.4423H87.3914V2.2085Z" fill="#FF5F00"/>
<path d="M87.9746 10.3254C87.9746 7.02705 89.5489 4.10147 91.9686 2.20843C90.1903 0.831739 87.9455 0 85.4966 0C79.6947 0 75.001 4.61768 75.001 10.3254C75.001 16.033 79.6947 20.6508 85.4965 20.6508C87.9454 20.6508 90.1902 19.8191 91.9686 18.4422C89.5489 16.5779 87.9746 13.6237 87.9746 10.3254Z" fill="#EB001B"/>
<path d="M108.965 10.3254C108.965 16.033 104.272 20.6508 98.4699 20.6508C96.021 20.6508 93.7762 19.8191 91.9978 18.4422C94.4467 16.5493 95.9919 13.6237 95.9919 10.3254C95.9919 7.02705 94.4175 4.10147 91.9978 2.20843C93.7761 0.831739 96.021 0 98.4699 0C104.272 0 108.965 4.64642 108.965 10.3254Z" fill="#F79E1B"/>
</g>
<defs>
<linearGradient id="paint0_linear_167_450" x1="2942.18" y1="62.8735" x2="3003.46" y2="-2085.19" gradientUnits="userSpaceOnUse">
<stop stop-color="#222357"/>
<stop offset="1" stop-color="#254AA5"/>
</linearGradient>
<clipPath id="clip0_167_450">
<rect width="64" height="21" fill="white"/>
</clipPath>
<clipPath id="clip1_167_450">
<rect width="34" height="26" fill="white" transform="translate(75)"/>
</clipPath>
</defs>
</svg>
