<svg width="48" height="30" viewBox="0 0 48 30" fill="none" xmlns="http://www.w3.org/2000/svg">
<g clip-path="url(#clip0_33_639)">
<path d="M9.38306 0H21.3414C23.0107 0 24.0489 1.36069 23.6597 3.03562L18.0921 26.9391C17.6993 28.6082 16.0277 29.97 14.3574 29.97H2.4C0.733126 29.97 -0.307499 28.6082 0.0819389 26.9391L5.65181 3.03562C6.04125 1.36069 7.71169 0 9.38306 0Z" fill="#E21836"/>
<path d="M20.3462 0H34.0982C35.7671 0 35.0147 1.36069 34.622 3.03562L29.0552 26.9391C28.6648 28.6082 28.7865 29.97 27.114 29.97H13.3622C11.6897 29.97 10.6547 28.6082 11.0475 26.9391L16.6138 3.03562C17.009 1.36069 18.6761 0 20.3462 0Z" fill="#00447C"/>
<path d="M33.5527 0H45.5111C47.1828 0 48.221 1.36069 47.8286 3.03562L42.2617 26.9391C41.8689 28.6082 40.1964 29.97 38.5248 29.97H26.5721C24.8996 29.97 23.8621 28.6082 24.254 26.9391L29.8215 3.03562C30.2109 1.36069 31.8802 0 33.5527 0Z" fill="#007B84"/>
<path d="M12.5059 7.6606C11.2763 7.67316 10.9131 7.6606 10.7971 7.63322C10.7524 7.8451 9.92255 11.6731 9.9203 11.6763C9.74162 12.4507 9.61168 13.0028 9.16993 13.3593C8.91943 13.5665 8.62674 13.6666 8.28737 13.6666C7.74212 13.6666 7.4243 13.3957 7.37105 12.8821L7.36074 12.7058C7.36074 12.7058 7.52687 11.6684 7.52687 11.6626C7.52687 11.6626 8.3978 8.17416 8.5538 7.7131C8.56205 7.68685 8.5643 7.67316 8.56637 7.6606C6.87118 7.6756 6.57062 7.6606 6.54999 7.63322C6.53855 7.67072 6.49655 7.8871 6.49655 7.8871L5.60724 11.819L5.53093 12.1523L5.38318 13.243C5.38318 13.5665 5.44674 13.8307 5.57312 14.054C5.9783 14.762 7.13405 14.8681 7.78787 14.8681C8.63012 14.8681 9.42043 14.689 9.95443 14.3622C10.8812 13.8147 11.1239 12.9586 11.3401 12.1977L11.4404 11.8075C11.4404 11.8075 12.3376 8.18447 12.49 7.7131C12.4956 7.68685 12.4981 7.67316 12.5059 7.6606ZM15.5584 10.5833C15.3422 10.5833 14.9472 10.6358 14.5921 10.8098C14.4632 10.876 14.3414 10.9523 14.2127 11.0285L14.3288 10.6096L14.2652 10.5391C13.5124 10.6915 13.3439 10.712 12.6484 10.8098L12.5903 10.8487C12.5095 11.518 12.4377 12.0215 12.1384 13.3375C12.0238 13.8243 11.9068 14.3106 11.7874 14.7963L11.8193 14.8576C12.5322 14.8201 12.7484 14.8201 13.3679 14.8302L13.4179 14.7758C13.4967 14.3727 13.5068 14.2782 13.6812 13.4617C13.7631 13.0747 13.9339 12.2242 14.0181 11.9213C14.1728 11.8495 14.3256 11.779 14.4713 11.779C14.8186 11.779 14.7762 12.0818 14.7629 12.2026C14.7479 12.4051 14.6215 13.0668 14.4917 13.6349L14.4051 14.0015C14.3449 14.2724 14.2787 14.5355 14.2184 14.804L14.2446 14.8576C14.947 14.8201 15.1613 14.8201 15.7611 14.8302L15.8316 14.7758C15.9402 14.1462 15.9719 13.9777 16.1642 13.061L16.261 12.6398C16.4491 11.8154 16.5436 11.3975 16.4012 11.057C16.2509 10.6754 15.8897 10.5833 15.5584 10.5833ZM18.9687 11.4464C18.5952 11.5182 18.3571 11.5658 18.1204 11.5968C17.8859 11.6343 17.6569 11.6686 17.2962 11.7187L17.2675 11.7445L17.2412 11.7652C17.2037 12.034 17.1775 12.2663 17.1276 12.5395C17.0854 12.8219 17.0204 13.1429 16.9146 13.604C16.8327 13.9568 16.7905 14.0798 16.7438 14.204C16.6982 14.3283 16.6482 14.449 16.5561 14.7961L16.5777 14.8282L16.5957 14.8576C16.933 14.8417 17.1537 14.8302 17.3804 14.8282C17.6069 14.8201 17.8416 14.8282 18.2046 14.83L18.2365 14.8043L18.2706 14.7757C18.3231 14.4625 18.3308 14.3783 18.3629 14.2257C18.3947 14.0618 18.4495 13.8352 18.5839 13.2293C18.6475 12.9449 18.7182 12.6612 18.7842 12.371C18.8526 12.0818 18.9242 11.7972 18.9925 11.5126L18.9824 11.4783L18.9687 11.4464ZM18.9766 10.2828C18.6372 10.0825 18.0419 10.1461 17.641 10.4227C17.2414 10.6938 17.1959 11.0785 17.5341 11.2814C17.8675 11.476 18.4652 11.4181 18.8626 11.1391C19.2614 10.8622 19.3112 10.481 18.9766 10.2828ZM21.0284 14.9204C21.7148 14.9204 22.4185 14.731 22.9482 14.1698C23.3556 13.7146 23.5426 13.0372 23.6072 12.7582C23.8178 11.8336 23.6537 11.402 23.4479 11.1391C23.1347 10.7382 22.5814 10.6096 22.0075 10.6096C21.6625 10.6096 20.8405 10.6437 20.1983 11.2358C19.7371 11.6628 19.5241 12.2423 19.3956 12.7977C19.2659 13.364 19.1166 14.3828 20.0537 14.7622C20.3429 14.8863 20.7597 14.9204 21.0284 14.9204ZM20.9747 12.8401C21.133 12.14 21.3199 11.5523 21.7967 11.5523C22.1704 11.5523 22.1976 11.9896 22.0315 12.692C22.0017 12.848 21.8654 13.4277 21.6809 13.6745C21.5519 13.8567 21.3996 13.9672 21.2309 13.9672C21.1808 13.9672 20.8827 13.9672 20.878 13.5245C20.8757 13.3058 20.9204 13.0825 20.9747 12.8401ZM25.3231 14.8304L25.3767 14.7758C25.4528 14.3727 25.4654 14.278 25.6337 13.4618C25.7181 13.0747 25.8925 12.2243 25.9742 11.9213C26.1293 11.8493 26.2795 11.7788 26.4299 11.7788C26.7747 11.7788 26.7327 12.0817 26.719 12.2024C26.7064 12.4053 26.5799 13.0666 26.4479 13.6347L26.3659 14.0013C26.3033 14.2724 26.2351 14.5353 26.1747 14.8042L26.2009 14.8578C26.9059 14.8203 27.1118 14.8203 27.7152 14.8304L27.7881 14.7758C27.8939 14.1458 27.9226 13.9775 28.1207 13.061L28.2151 12.6397C28.4041 11.8152 28.4997 11.3977 28.3596 11.0572C28.2049 10.6756 27.8417 10.5835 27.5149 10.5835C27.2984 10.5835 26.9012 10.6357 26.5482 10.81C26.422 10.876 26.2954 10.9522 26.1713 11.0287L26.2795 10.6098L26.2214 10.5389C25.4687 10.6915 25.297 10.712 24.6023 10.81L24.5489 10.8487C24.4647 11.5182 24.3962 12.0213 24.097 13.3377C23.9823 13.8244 23.8653 14.3106 23.7462 14.7963L23.7781 14.8578C24.4919 14.8203 24.7049 14.8203 25.3231 14.8304ZM30.5014 14.8576C30.5457 14.6412 30.8089 13.3595 30.8112 13.3595C30.8112 13.3595 31.0352 12.4188 31.0491 12.3847C31.0491 12.3847 31.1196 12.2868 31.1901 12.248H31.2938C32.2729 12.248 33.3786 12.248 34.2451 11.6105C34.8347 11.1732 35.2379 10.5277 35.4177 9.74297C35.4644 9.5506 35.4987 9.32185 35.4987 9.0931C35.4987 8.79253 35.4385 8.49516 35.2641 8.26285C34.8222 7.64466 33.9422 7.63322 32.9264 7.62853L32.4257 7.63322C31.1254 7.64935 30.604 7.64466 30.3897 7.61841C30.3717 7.7131 30.3376 7.88166 30.3376 7.88166C30.3376 7.88166 29.8718 10.0403 29.8718 10.0437L28.7046 14.8497C29.8399 14.836 30.3055 14.836 30.5014 14.8576ZM31.3645 11.0228C31.3645 11.0228 31.8595 8.86847 31.8572 8.87672L31.8734 8.7661L31.8803 8.6821L32.0783 8.70235C32.0783 8.70235 33.0996 8.7901 33.1234 8.79235C33.5266 8.94835 33.6927 9.35035 33.5768 9.87497C33.4709 10.3546 33.16 10.7577 32.7602 10.9523C32.4312 11.1173 32.028 11.131 31.6127 11.131H31.3441L31.3645 11.0228ZM34.4477 12.88C34.3169 13.4378 34.1665 14.4569 35.0989 14.8201C35.3963 14.9465 35.6627 14.9842 35.9333 14.9705C36.2194 14.9551 36.4844 14.8117 36.7298 14.6052L36.6632 14.86L36.7056 14.9144C37.3763 14.8863 37.5844 14.8863 38.311 14.8919L38.377 14.8417C38.4829 14.2178 38.583 13.6122 38.8589 12.4188C38.9931 11.8473 39.1272 11.2812 39.265 10.712L39.2434 10.6493C38.4932 10.7883 38.2928 10.8181 37.5709 10.9203L37.5162 10.9649C37.5089 11.023 37.5012 11.0787 37.4942 11.1344C37.3821 10.9531 37.2194 10.7982 36.9685 10.7018C36.6475 10.5755 35.8937 10.7382 35.2459 11.3281C34.7905 11.7494 34.5719 12.3265 34.4477 12.88ZM36.0235 12.9142C36.1842 12.2264 36.3685 11.6448 36.8466 11.6448C37.1489 11.6448 37.308 11.9236 37.2756 12.3993C37.2479 12.5279 37.2192 12.6563 37.1894 12.7844C37.1416 12.9888 37.0898 13.1913 37.0394 13.3942C36.988 13.5329 36.9282 13.6638 36.8627 13.751C36.7397 13.9253 36.4471 14.0333 36.2785 14.0333C36.2307 14.0333 35.9357 14.0333 35.9256 13.5983C35.9232 13.382 35.9678 13.159 36.0235 12.9142ZM44.2521 10.6437L44.194 10.5775C43.4517 10.7279 43.3172 10.7519 42.6353 10.844L42.5851 10.894C42.5828 10.9023 42.5807 10.9147 42.5772 10.9261L42.5749 10.9148C42.0672 12.0863 42.082 11.8336 41.6687 12.7557C41.6663 12.7137 41.6663 12.6877 41.664 12.643L41.5606 10.6437L41.4957 10.5775C40.7179 10.7279 40.6995 10.7519 39.9814 10.844L39.9254 10.894C39.9175 10.918 39.9175 10.9443 39.9128 10.9728L39.9175 10.9831C40.0073 11.4417 39.9857 11.3393 40.0757 12.0635C40.1177 12.4188 40.1738 12.7762 40.2156 13.1272C40.2865 13.7144 40.3262 14.0035 40.4127 14.9C39.9278 15.7002 39.8129 16.0032 39.3458 16.7056L39.3492 16.7125L39.0203 17.2327C38.9828 17.2874 38.9487 17.3249 38.9009 17.341C38.8484 17.3669 38.7801 17.3716 38.6854 17.3716H38.5032L38.2324 18.2723L39.1615 18.2883C39.7067 18.286 40.0495 18.031 40.234 17.6883L40.8182 16.6872H40.8089L40.8704 16.6167C41.2634 15.7709 44.2521 10.6437 44.2521 10.6437ZM34.4477 22.4727H34.0536L35.5124 17.6483H35.9961L36.1499 17.1515L36.1645 17.704C36.1465 18.0457 36.4152 18.3485 37.1211 18.2984H37.9377L38.2186 17.3695H37.9114C37.7348 17.3695 37.6527 17.3249 37.663 17.2293L37.6482 16.667H36.1364V16.67C35.6476 16.6801 34.1877 16.7168 33.8922 16.7956C33.5346 16.8875 33.1577 17.1588 33.1577 17.1588L33.3059 16.6612H31.8916L31.5968 17.6483L30.1187 22.5464H29.8319L29.5506 23.4687H32.3674L32.2731 23.7762H33.661L33.7532 23.4687H34.1425L34.4477 22.4727ZM33.292 18.6286C33.0655 18.6912 32.6442 18.8813 32.6442 18.8813L33.019 17.6483H34.1425L33.8715 18.5467C33.8715 18.5467 33.5241 18.5673 33.292 18.6286ZM33.3136 20.39C33.3136 20.39 32.9607 20.4344 32.7284 20.4867C32.4996 20.5561 32.0704 20.7747 32.0704 20.7747L32.4576 19.4917H33.5869L33.3136 20.39ZM32.6839 22.484H31.5569L31.8837 21.4012H33.0072L32.6839 22.484ZM35.3984 19.4917H37.0231L36.7896 20.2478H35.1434L34.8962 21.0743H36.3368L35.2459 22.6102C35.1696 22.723 35.1012 22.763 35.0251 22.7947C34.9487 22.8335 34.8484 22.879 34.7326 22.879H34.3328L34.0583 23.7843H35.1034C35.6468 23.7843 35.9678 23.5372 36.2046 23.2128L36.9527 22.189L37.1132 23.2285C37.1474 23.4232 37.2872 23.5372 37.3819 23.5814C37.4866 23.6339 37.5947 23.7239 37.7476 23.7374C37.9112 23.7443 38.0295 23.75 38.1083 23.75H38.622L38.9303 22.7367H38.7278C38.6116 22.7367 38.4111 22.7172 38.3772 22.6808C38.3429 22.6364 38.3429 22.5683 38.3247 22.4645L38.1615 21.4227H37.4944L37.7871 21.0743H39.4302L39.6829 20.2478H38.1617L38.3986 19.4917H39.9152L40.1965 18.5592H35.6751L35.3984 19.4917ZM21.6762 22.6945L22.0553 21.433H23.614L23.8986 20.4948H22.3386L22.5767 19.7183H24.1011L24.3837 18.8097H20.5694L20.2928 19.7183H21.1594L20.9282 20.4946H20.0594L19.7714 21.449H20.6376L20.1321 23.1181C20.0641 23.339 20.1642 23.4232 20.2277 23.5259C20.2928 23.6258 20.3586 23.692 20.5067 23.7295C20.6596 23.7637 20.7642 23.7841 20.9063 23.7841H22.6634L22.9765 22.7446L22.1976 22.8517C22.0472 22.8517 21.6306 22.8337 21.6762 22.6945ZM21.8549 16.6555L21.46 17.3693C21.3756 17.5252 21.2993 17.6221 21.2309 17.6665C21.1705 17.704 21.0509 17.72 20.8778 17.72H20.6717L20.3963 18.6331H21.0807C21.4099 18.6331 21.6625 18.5125 21.7832 18.4522C21.913 18.3828 21.9471 18.4223 22.0472 18.3256L22.2784 18.1253H24.4156L24.6992 17.1747H23.1347L23.4079 16.6553L21.8549 16.6555ZM25.0099 22.7129C24.9736 22.6604 24.9998 22.568 25.0555 22.3756L25.6396 20.4423H27.7176C28.0204 20.438 28.2389 20.4344 28.3814 20.4243C28.534 20.4082 28.7001 20.3536 28.8811 20.2557C29.068 20.1532 29.1636 20.045 29.2442 19.9208C29.3342 19.7971 29.479 19.5258 29.6031 19.1078L30.3374 16.6612L28.1811 16.6737C28.1811 16.6737 27.517 16.7716 27.2247 16.88C26.9297 17.0005 26.5082 17.3375 26.5082 17.3375L26.7029 16.6668H25.3709L23.506 22.8517C23.4398 23.0917 23.3954 23.266 23.3852 23.3708C23.3819 23.4835 23.5276 23.5953 23.6221 23.6795C23.7336 23.7637 23.8986 23.75 24.0569 23.7637C24.2234 23.7762 24.46 23.7841 24.7868 23.7841H25.8106L26.1246 22.723L25.2083 22.8097C25.1102 22.8097 25.0396 22.7572 25.0099 22.7129ZM26.0164 19.1365H28.1989L28.0602 19.5713C28.0409 19.5815 27.9942 19.5498 27.772 19.576H25.882L26.0164 19.1365ZM26.4537 17.6778H28.6547L28.4963 18.2017C28.4963 18.2017 27.4591 18.1915 27.2929 18.2221C26.5617 18.3487 26.1347 18.7392 26.1347 18.7392L26.4537 17.6778ZM28.1093 21.0277C28.0911 21.0927 28.0624 21.1323 28.0227 21.1621C27.9782 21.1906 27.9064 21.2007 27.7996 21.2007H27.4887L27.5071 20.6712H26.2133L26.1608 23.2604C26.1589 23.4472 26.1769 23.5553 26.3136 23.642C26.4505 23.75 26.8716 23.7638 27.4386 23.7638H28.2492L28.5417 22.7945L27.8361 22.8333L27.6014 22.847C27.5695 22.8333 27.5387 22.8207 27.5046 22.7868C27.475 22.7573 27.4247 22.7753 27.433 22.5886L27.4386 21.9248L28.1785 21.8943C28.5782 21.8943 28.7491 21.7642 28.8947 21.6404C29.0337 21.5217 29.0792 21.3854 29.1317 21.2007L29.2559 20.6131H28.2389L28.1091 21.0275L28.1093 21.0277Z" fill="#FEFEFE"/>
</g>
<defs>
<clipPath id="clip0_33_639">
<rect width="48" height="30" fill="white"/>
</clipPath>
</defs>
</svg>
