<svg width="60" height="60" viewBox="0 0 60 60" fill="none" xmlns="http://www.w3.org/2000/svg">
<path fill-rule="evenodd" clip-rule="evenodd" d="M20.8113 11.6575L20.88 11.3575C21.0113 10.8 21.2263 9.98001 21.67 9.17251C22.1225 8.35001 22.8238 7.51626 23.9238 6.96751C25.02 6.42126 26.3938 6.21751 28.0925 6.44251C29.9675 6.69251 33.7338 7.31251 37.0613 9.00501C40.4075 10.7075 43.5425 13.6363 43.5425 18.5138C43.5425 21.0338 42.5675 23.7375 41.6225 25.5C41.1688 26.3475 40.63 27.1575 40.09 27.5938C39.9663 27.6938 39.79 27.8188 39.5713 27.9063C38.9712 29.8782 37.7768 31.6167 36.1512 32.8841C34.5257 34.1514 32.5483 34.8858 30.4896 34.9867C28.4308 35.0877 26.3912 34.5503 24.6494 33.4481C22.9077 32.3458 21.5489 30.7325 20.7588 28.8288L20.7288 28.8338L20.285 28.295L20.2838 28.2925L20.2813 28.29L20.275 28.2813L20.2538 28.2563C20.1468 28.1231 20.0438 27.9868 19.945 27.8475C19.6751 27.4731 19.4207 27.0878 19.1825 26.6925C18.595 25.72 17.8863 24.335 17.4325 22.7188C16.98 21.1025 16.7725 19.2075 17.2475 17.2525C17.71 15.35 18.8013 13.4775 20.7775 11.805L20.8113 11.6575ZM22.9113 27.455C23.4534 29.0141 24.4945 30.3508 25.8732 31.2583C27.252 32.1658 28.8915 32.5934 30.5379 32.4748C32.1842 32.3562 33.7455 31.6981 34.98 30.6023C36.2145 29.5066 37.0532 28.0344 37.3663 26.4138L37.5075 26.4613C37.5025 26.3905 37.5 26.3197 37.5 26.2488C37.5 24.18 37.2125 22.7363 36.945 21.8363C36.8928 21.6611 36.8348 21.4876 36.7713 21.3163L36.72 21.3188H36.67C35.7353 21.3389 34.8009 21.2678 33.88 21.1063C31.7338 20.7438 28.8275 19.8388 25.405 17.7425C25.33 17.91 25.255 18.0988 25.18 18.3088C24.935 19.0025 24.7338 19.8263 24.56 20.6963C24.4063 21.4625 24.28 22.2338 24.16 22.9563L24.1138 23.2413C23.985 24.0163 23.8563 24.7775 23.7063 25.3288C23.4438 26.2863 23.1763 26.9663 22.9113 27.4538V27.455ZM21.1613 25.1263C20.5967 24.1571 20.1533 23.1223 19.8413 22.045C19.4675 20.7125 19.33 19.27 19.6775 17.8438C20.015 16.4563 20.8313 14.9975 22.51 13.615C22.8125 13.41 22.95 13.135 22.9875 13.0613V13.06C23.0532 12.9249 23.1059 12.7838 23.145 12.6388C23.185 12.4963 23.2288 12.3013 23.27 12.1263L23.3138 11.93C23.4325 11.4263 23.5863 10.8775 23.8613 10.3763C24.1288 9.89125 24.495 9.47626 25.04 9.20501C25.5875 8.93126 26.435 8.74376 27.7625 8.92126C29.5788 9.16251 32.995 9.74126 35.9275 11.2338C38.84 12.715 41.0425 14.9575 41.0425 18.5138C41.0425 20.1513 40.4925 22.0138 39.83 23.4825C39.705 22.525 39.525 21.7425 39.34 21.1225C39.2111 20.6794 39.0502 20.2462 38.8588 19.8263C38.7866 19.6706 38.7073 19.5184 38.6213 19.37L38.6 19.3363L38.5925 19.3238L38.5888 19.3175L38.5863 19.3138L38.1238 18.5963L37.2963 18.7625L37.2788 18.7663L37.1575 18.7825C36.9715 18.8032 36.7846 18.8157 36.5975 18.82C35.8268 18.8349 35.0565 18.7746 34.2975 18.64C32.2813 18.3 29.3188 17.3738 25.72 14.9775L24.845 14.3938L24.1213 15.1563C23.525 15.7838 23.12 16.64 22.8238 17.4738C22.5213 18.33 22.2925 19.2863 22.1088 20.2038C21.9564 20.9845 21.8181 21.768 21.6938 22.5538L21.6463 22.8338C21.5125 23.6475 21.4038 24.2688 21.2938 24.6713C21.2527 24.8238 21.2085 24.9755 21.1613 25.1263Z" fill="#494949"/>
<path fill-rule="evenodd" clip-rule="evenodd" d="M22.3925 36.0688C22.1275 35.5413 21.8013 34.89 21.25 35.0163C14.495 36.5538 7.5 40.9925 7.5 45.7125V52.5H52.5V45.7125C52.5 41.995 48.16 38.4513 43.0162 36.3625L43.01 36.35C43.0043 36.3387 42.9985 36.3274 42.9925 36.3163L42.9512 36.3363C41.585 35.7863 40.1625 35.3363 38.75 35.0163C38.1213 34.8725 37.4713 35.7375 37.1875 36.2788H22.5C22.465 36.2138 22.43 36.1413 22.3925 36.0688ZM39.2537 37.7188C39.8 37.87 40.3438 38.04 40.88 38.2275C40.895 38.655 40.8625 39.16 40.7925 39.675C40.7212 40.2082 40.6075 40.7349 40.4525 41.25H38.75C38.5179 41.2501 38.2905 41.3149 38.0931 41.4369C37.8957 41.559 37.7362 41.7337 37.6325 41.9413L36.3825 44.4413C36.2956 44.6147 36.2502 44.806 36.25 45V47.5C36.25 47.8315 36.3817 48.1495 36.6161 48.3839C36.8505 48.6183 37.1685 48.75 37.5 48.75H40V46.25H38.75V45.295L39.5225 43.75H42.9775L43.75 45.295V46.25H42.5V48.75H45C45.3315 48.75 45.6495 48.6183 45.8839 48.3839C46.1183 48.1495 46.25 47.8315 46.25 47.5V45C46.2498 44.806 46.2044 44.6147 46.1175 44.4413L44.8675 41.9413C44.7638 41.7337 44.6043 41.559 44.4069 41.4369C44.2095 41.3149 43.9821 41.2501 43.75 41.25H43.0425C43.1969 40.5885 43.3006 39.9161 43.3525 39.2388C44.5713 39.815 45.7038 40.4763 46.685 41.1913C49.0875 42.9438 50 44.5838 50 45.7125V50H10V45.7125C10 44.5838 10.9125 42.9438 13.315 41.1913C14.5225 40.31 15.9637 39.5125 17.5087 38.8525C17.5517 39.8486 17.7115 40.8362 17.985 41.795L17.995 41.83C17.2477 42.3028 16.6915 43.0244 16.4247 43.8675C16.1578 44.7105 16.1975 45.6208 16.5367 46.4374C16.8758 47.2541 17.4927 47.9246 18.2783 48.3305C19.0638 48.7365 19.9676 48.8518 20.83 48.6561C21.6923 48.4603 22.4577 47.9661 22.9911 47.2608C23.5244 46.5554 23.7913 45.6843 23.7446 44.8012C23.698 43.9182 23.3408 43.08 22.7361 42.4348C22.1314 41.7896 21.3182 41.3788 20.44 41.275C20.2803 40.752 20.1632 40.2169 20.09 39.675C20.0204 39.1904 19.9916 38.7007 20.0037 38.2113C20.0074 38.1178 20.0136 38.0244 20.0225 37.9313C20.1725 37.885 20.3225 37.84 20.4725 37.7975L20.9912 38.78H38.6963L39.2537 37.72V37.7188ZM20 46.27C20.6725 46.27 21.25 45.72 21.25 45.0013C21.25 44.2838 20.6725 43.7325 20 43.7325C19.3275 43.7325 18.75 44.2825 18.75 45.0013C18.75 45.7188 19.3275 46.27 20 46.27Z" fill="#494949"/>
</svg>
