<svg width="30" height="30" viewBox="0 0 30 30" fill="none" xmlns="http://www.w3.org/2000/svg">
<path d="M23.125 11.25H20.625M20.625 11.25H18.125M20.625 11.25V8.75M20.625 11.25V13.75" stroke="#94B1EC" stroke-width="3.75" stroke-linecap="round"/>
<path d="M15 6.96755L14.315 7.60755C14.4027 7.70142 14.5088 7.77626 14.6266 7.82742C14.7444 7.87859 14.8715 7.90499 15 7.90499C15.1285 7.90499 15.2556 7.87859 15.3734 7.82742C15.4912 7.77626 15.5973 7.70142 15.685 7.60755L15 6.96755ZM3.315 17.1026C3.37685 17.2115 3.45991 17.307 3.55929 17.3833C3.65867 17.4597 3.77234 17.5153 3.89358 17.5469C4.01482 17.5786 4.14118 17.5856 4.26518 17.5676C4.38918 17.5496 4.50832 17.5069 4.61554 17.442C4.72275 17.3772 4.81589 17.2915 4.88942 17.19C4.96296 17.0886 5.01541 16.9734 5.04368 16.8513C5.07195 16.7292 5.07546 16.6027 5.054 16.4793C5.03254 16.3558 4.98655 16.2379 4.91875 16.1326L3.315 17.1026ZM8.17125 20.2138C8.08654 20.1209 7.98403 20.046 7.8698 19.9936C7.75557 19.9412 7.63196 19.9122 7.50632 19.9085C7.38068 19.9048 7.25557 19.9264 7.13844 19.972C7.02131 20.0176 6.91455 20.0863 6.8245 20.174C6.73446 20.2617 6.66296 20.3666 6.61428 20.4825C6.56559 20.5984 6.54071 20.7228 6.54111 20.8485C6.5415 20.9742 6.56717 21.0986 6.61659 21.2141C6.666 21.3297 6.73815 21.4342 6.82875 21.5213L8.17125 20.2138ZM3.4375 11.6476C3.4375 8.0163 5.0225 5.77255 6.9825 5.0038C8.93875 4.23755 11.675 4.78505 14.315 7.60755L15.685 6.32755C12.7 3.13505 9.18625 2.12755 6.29875 3.25755C3.415 4.38755 1.5625 7.49005 1.5625 11.6476H3.4375ZM19.3875 24.9501C21.2537 23.4363 23.4887 21.4076 25.2662 19.1413C27.025 16.8988 28.4375 14.2926 28.4375 11.6451H26.5625C26.5625 13.6601 25.4625 15.8501 23.79 17.9838C22.135 20.0951 20.02 22.0238 18.2075 23.4938L19.3875 24.9501ZM28.4375 11.6451C28.4375 7.4888 26.585 4.3863 23.7 3.25755C20.8125 2.1263 17.3 3.13255 14.315 6.3263L15.685 7.60755C18.325 4.78505 21.0612 4.2363 23.0175 5.00255C24.9775 5.77005 26.5625 8.01505 26.5625 11.6451H28.4375ZM10.6125 24.9513C12.2 26.2413 13.3025 27.1876 15 27.1876V25.3126C14.0962 25.3126 13.5337 24.9076 11.7925 23.4951L10.6125 24.9513ZM18.2075 23.4938C16.4663 24.9063 15.9038 25.3126 15 25.3126V27.1876C16.6975 27.1876 17.8013 26.2413 19.3888 24.9513L18.2075 23.4938ZM4.92 16.1326C3.98375 14.5876 3.4375 13.0688 3.4375 11.6476H1.5625C1.5625 13.5376 2.2825 15.3976 3.315 17.1026L4.91875 16.1326H4.92ZM11.7925 23.4951C10.5233 22.4719 9.31416 21.3764 8.17125 20.2138L6.82875 21.5213C8.02241 22.7366 9.28661 23.8818 10.6125 24.9513L11.7925 23.4951Z" fill="#94B1EC"/>
</svg>
