<svg width="60" height="60" viewBox="0 0 60 60" fill="none" xmlns="http://www.w3.org/2000/svg">
<path d="M52.5 52.5V12.5H7.5V32.5H2.5V12.5C2.5 11.125 2.99 9.9475 3.97 8.9675C4.95 7.9875 6.12667 7.49834 7.5 7.5H52.5C53.875 7.5 55.0525 7.99 56.0325 8.97C57.0125 9.95 57.5017 11.1267 57.5 12.5V47.5C57.5 48.875 57.01 50.0525 56.03 51.0325C55.05 52.0125 53.8733 52.5017 52.5 52.5ZM22.5 35C19.75 35 17.3958 34.0208 15.4375 32.0625C13.4792 30.1042 12.5 27.75 12.5 25C12.5 22.25 13.4792 19.8958 15.4375 17.9375C17.3958 15.9792 19.75 15 22.5 15C25.25 15 27.6042 15.9792 29.5625 17.9375C31.5208 19.8958 32.5 22.25 32.5 25C32.5 27.75 31.5208 30.1042 29.5625 32.0625C27.6042 34.0208 25.25 35 22.5 35ZM2.5 55V48C2.5 46.5833 2.865 45.2817 3.595 44.095C4.325 42.9083 5.29333 42.0017 6.5 41.375C9.08333 40.0833 11.7083 39.1142 14.375 38.4675C17.0417 37.8208 19.75 37.4983 22.5 37.5C25.25 37.5 27.9583 37.8233 30.625 38.47C33.2917 39.1167 35.9167 40.085 38.5 41.375C39.7083 42 40.6775 42.9067 41.4075 44.095C42.1375 45.2833 42.5017 46.585 42.5 48V55H2.5Z" fill="#D18F83"/>
</svg>
