<svg width="60" height="60" viewBox="0 0 60 60" fill="none" xmlns="http://www.w3.org/2000/svg">
<path d="M36 55C34.5417 55 33.1458 54.6975 31.8125 54.0925C30.4792 53.4875 29.3333 52.6233 28.375 51.5L13.875 34.625L17.125 32.1875C17.9583 31.5625 18.8958 31.2292 19.9375 31.1875C20.9792 31.1458 21.9375 31.4167 22.8125 32L26.25 34.1875V10C26.25 9.29167 26.49 8.6975 26.97 8.2175C27.45 7.7375 28.0433 7.49833 28.75 7.5C29.4583 7.5 30.0525 7.74 30.5325 8.22C31.0125 8.7 31.2517 9.29333 31.25 10V32.5H35V20C35 19.2917 35.24 18.6975 35.72 18.2175C36.2 17.7375 36.7933 17.4983 37.5 17.5C38.2083 17.5 38.8025 17.74 39.2825 18.22C39.7625 18.7 40.0017 19.2933 40 20V32.5H43.75V22.5C43.75 21.7917 43.99 21.1975 44.47 20.7175C44.95 20.2375 45.5433 19.9983 46.25 20C46.9583 20 47.5525 20.24 48.0325 20.72C48.5125 21.2 48.7517 21.7933 48.75 22.5V32.5H52.5V27.5C52.5 26.7917 52.74 26.1975 53.22 25.7175C53.7 25.2375 54.2933 24.9983 55 25C55.7083 25 56.3025 25.24 56.7825 25.72C57.2625 26.2 57.5017 26.7933 57.5 27.5V45C57.5 47.75 56.5208 50.1042 54.5625 52.0625C52.6042 54.0208 50.25 55 47.5 55H36ZM11.25 25C8.79167 25 6.71834 24.1567 5.03 22.47C3.34167 20.7833 2.49834 18.7517 2.5 16.375C2.5 14.9583 2.78167 13.7292 3.345 12.6875C3.90834 11.6458 5.23084 9.9375 7.3125 7.5625L11.25 3.0625L15.1875 7.625C17.3125 10.0833 18.6458 11.8125 19.1875 12.8125C19.7292 13.8125 20 15 20 16.375C20 18.75 19.1458 20.7817 17.4375 22.47C15.7292 24.1583 13.6667 25.0017 11.25 25Z" fill="black"/>
</svg>
