<svg width="39" height="39" viewBox="0 0 39 39" fill="none" xmlns="http://www.w3.org/2000/svg">
<path d="M19.5 34.125V30.6719L28.1125 22.0594L31.5656 25.5125L22.9531 34.125H19.5ZM4.875 26V22.75H16.25V26H4.875ZM32.7031 24.375L29.25 20.9219L30.4281 19.7437C30.726 19.4458 31.1052 19.2969 31.5656 19.2969C32.026 19.2969 32.4052 19.4458 32.7031 19.7437L33.8813 20.9219C34.1792 21.2198 34.3281 21.599 34.3281 22.0594C34.3281 22.5198 34.1792 22.899 33.8813 23.1969L32.7031 24.375ZM4.875 19.5V16.25H22.75V19.5H4.875ZM4.875 13V9.75H22.75V13H4.875Z" fill="#94B1EC"/>
</svg>
