<svg width="37" height="35" viewBox="0 0 37 35" fill="none" xmlns="http://www.w3.org/2000/svg">
<path d="M18.827 20.4167C18.4033 20.4167 18.0479 20.2767 17.7608 19.9967C17.4737 19.7167 17.3306 19.3705 17.3316 18.9583C17.3316 18.5451 17.4752 18.1985 17.7623 17.9185C18.0494 17.6385 18.4043 17.499 18.827 17.5C19.2507 17.5 19.6061 17.64 19.8932 17.92C20.1803 18.2 20.3234 18.5461 20.3224 18.9583C20.3224 19.3715 20.1788 19.7181 19.8917 19.9981C19.6046 20.2781 19.2497 20.4176 18.827 20.4167ZM12.8455 20.4167C12.4218 20.4167 12.0664 20.2767 11.7793 19.9967C11.4922 19.7167 11.3491 19.3705 11.3501 18.9583C11.3501 18.5451 11.4937 18.1985 11.7808 17.9185C12.0679 17.6385 12.4228 17.499 12.8455 17.5C13.2692 17.5 13.6246 17.64 13.9117 17.92C14.1988 18.2 14.3419 18.5461 14.3409 18.9583C14.3409 19.3715 14.1973 19.7181 13.9102 19.9981C13.6231 20.2781 13.2682 20.4176 12.8455 20.4167ZM24.8085 20.4167C24.3848 20.4167 24.0294 20.2767 23.7423 19.9967C23.4552 19.7167 23.3121 19.3705 23.3131 18.9583C23.3131 18.5451 23.4567 18.1985 23.7438 17.9185C24.0309 17.6385 24.3858 17.499 24.8085 17.5C25.2322 17.5 25.5876 17.64 25.8747 17.92C26.1618 18.2 26.3048 18.5461 26.3038 18.9583C26.3038 19.3715 26.1603 19.7181 25.8732 19.9981C25.5861 20.2781 25.2312 20.4176 24.8085 20.4167ZM18.827 26.25C18.4033 26.25 18.0479 26.11 17.7608 25.83C17.4737 25.55 17.3306 25.2039 17.3316 24.7917C17.3316 24.3785 17.4752 24.0319 17.7623 23.7519C18.0494 23.4719 18.4043 23.3323 18.827 23.3333C19.2507 23.3333 19.6061 23.4733 19.8932 23.7533C20.1803 24.0333 20.3234 24.3794 20.3224 24.7917C20.3224 25.2048 20.1788 25.5514 19.8917 25.8314C19.6046 26.1114 19.2497 26.251 18.827 26.25ZM12.8455 26.25C12.4218 26.25 12.0664 26.11 11.7793 25.83C11.4922 25.55 11.3491 25.2039 11.3501 24.7917C11.3501 24.3785 11.4937 24.0319 11.7808 23.7519C12.0679 23.4719 12.4228 23.3323 12.8455 23.3333C13.2692 23.3333 13.6246 23.4733 13.9117 23.7533C14.1988 24.0333 14.3419 24.3794 14.3409 24.7917C14.3409 25.2048 14.1973 25.5514 13.9102 25.8314C13.6231 26.1114 13.2682 26.251 12.8455 26.25ZM24.8085 26.25C24.3848 26.25 24.0294 26.11 23.7423 25.83C23.4552 25.55 23.3121 25.2039 23.3131 24.7917C23.3131 24.3785 23.4567 24.0319 23.7438 23.7519C24.0309 23.4719 24.3858 23.3323 24.8085 23.3333C25.2322 23.3333 25.5876 23.4733 25.8747 23.7533C26.1618 24.0333 26.3048 24.3794 26.3038 24.7917C26.3038 25.2048 26.1603 25.5514 25.8732 25.8314C25.5861 26.1114 25.2312 26.251 24.8085 26.25ZM8.3594 32.0833C7.53694 32.0833 6.83262 31.7975 6.24644 31.2258C5.66025 30.6542 5.36766 29.9678 5.36865 29.1667V8.74999C5.36865 7.94791 5.66175 7.26103 6.24793 6.68936C6.83412 6.1177 7.53794 5.83235 8.3594 5.83332H9.85477V2.91666H12.8455V5.83332H24.8085V2.91666H27.7992V5.83332H29.2946C30.117 5.83332 30.8214 6.11916 31.4075 6.69082C31.9937 7.26249 32.2863 7.94888 32.2853 8.74999V29.1667C32.2853 29.9687 31.9922 30.6556 31.406 31.2273C30.8199 31.7989 30.116 32.0843 29.2946 32.0833H8.3594ZM8.3594 29.1667H29.2946V14.5833H8.3594V29.1667Z" fill="#94B1EC"/>
</svg>
