<svg width="40" height="40" viewBox="0 0 40 40" fill="none" xmlns="http://www.w3.org/2000/svg">
<path d="M15 4.99984V1.6665H25V4.99984H15ZM18.3333 23.3332H21.6667V13.3332H18.3333V23.3332ZM20 36.6665C17.9444 36.6665 16.0067 36.2704 14.1867 35.4782C12.3667 34.686 10.7767 33.6098 9.41667 32.2498C8.05556 30.8887 6.97889 29.2982 6.18667 27.4782C5.39445 25.6582 4.99889 23.7209 5 21.6665C5 19.6109 5.39611 17.6732 6.18834 15.8532C6.98056 14.0332 8.05667 12.4432 9.41667 11.0832C10.7778 9.72206 12.3683 8.64539 14.1883 7.85317C16.0083 7.06095 17.9456 6.66539 20 6.6665C21.7222 6.6665 23.375 6.94428 24.9583 7.49984C26.5417 8.05539 28.0278 8.86095 29.4167 9.9165L31.75 7.58317L34.0833 9.9165L31.75 12.2498C32.8056 13.6387 33.6111 15.1248 34.1667 16.7082C34.7222 18.2915 35 19.9443 35 21.6665C35 23.7221 34.6039 25.6598 33.8117 27.4798C33.0194 29.2998 31.9433 30.8898 30.5833 32.2498C29.2222 33.611 27.6317 34.6876 25.8117 35.4798C23.9917 36.2721 22.0544 36.6676 20 36.6665ZM20 33.3332C23.2222 33.3332 25.9722 32.1943 28.25 29.9165C30.5278 27.6387 31.6667 24.8887 31.6667 21.6665C31.6667 18.4443 30.5278 15.6943 28.25 13.4165C25.9722 11.1387 23.2222 9.99984 20 9.99984C16.7778 9.99984 14.0278 11.1387 11.75 13.4165C9.47223 15.6943 8.33334 18.4443 8.33334 21.6665C8.33334 24.8887 9.47223 27.6387 11.75 29.9165C14.0278 32.1943 16.7778 33.3332 20 33.3332Z" fill="#94B1EC"/>
</svg>
