<svg width="40" height="40" viewBox="0 0 40 40" fill="none" xmlns="http://www.w3.org/2000/svg">
<path d="M11.6666 18.3335V21.6668H28.3333V18.3335H11.6666ZM19.9999 3.3335C10.7999 3.3335 3.33325 10.8002 3.33325 20.0002C3.33325 29.2002 10.7999 36.6668 19.9999 36.6668C29.1999 36.6668 36.6666 29.2002 36.6666 20.0002C36.6666 10.8002 29.1999 3.3335 19.9999 3.3335ZM19.9999 33.3335C12.6499 33.3335 6.66659 27.3502 6.66659 20.0002C6.66659 12.6502 12.6499 6.66683 19.9999 6.66683C27.3499 6.66683 33.3333 12.6502 33.3333 20.0002C33.3333 27.3502 27.3499 33.3335 19.9999 33.3335Z" fill="#94B1EC"/>
</svg>
