<svg width="34" height="39" viewBox="0 0 34 39" fill="none" xmlns="http://www.w3.org/2000/svg">
<path d="M27.9653 7.3125H22.8194V6.09375C22.8194 5.12405 22.4941 4.19407 21.9151 3.50839C21.3361 2.82271 20.5508 2.4375 19.7319 2.4375H13.5569C12.7381 2.4375 11.9528 2.82271 11.3737 3.50839C10.7947 4.19407 10.4694 5.12405 10.4694 6.09375V7.3125H5.3236C5.05065 7.3125 4.78888 7.4409 4.59587 7.66946C4.40286 7.89802 4.29443 8.20802 4.29443 8.53125C4.29443 8.85448 4.40286 9.16448 4.59587 9.39304C4.78888 9.6216 5.05065 9.75 5.3236 9.75H6.35277V31.6875C6.35277 32.334 6.56963 32.954 6.95564 33.4111C7.34165 33.8682 7.8652 34.125 8.4111 34.125H24.8778C25.4237 34.125 25.9472 33.8682 26.3332 33.4111C26.7192 32.954 26.9361 32.334 26.9361 31.6875V9.75H27.9653C28.2382 9.75 28.5 9.6216 28.693 9.39304C28.886 9.16448 28.9944 8.85448 28.9944 8.53125C28.9944 8.20802 28.886 7.89802 28.693 7.66946C28.5 7.4409 28.2382 7.3125 27.9653 7.3125ZM12.5278 6.09375C12.5278 5.77052 12.6362 5.46052 12.8292 5.23196C13.0222 5.0034 13.284 4.875 13.5569 4.875H19.7319C20.0049 4.875 20.2667 5.0034 20.4597 5.23196C20.6527 5.46052 20.7611 5.77052 20.7611 6.09375V7.3125H12.5278V6.09375ZM24.8778 31.6875H8.4111V9.75H24.8778V31.6875ZM14.5861 15.8438V25.5938C14.5861 25.917 14.4777 26.227 14.2847 26.4555C14.0917 26.6841 13.8299 26.8125 13.5569 26.8125C13.284 26.8125 13.0222 26.6841 12.8292 26.4555C12.6362 26.227 12.5278 25.917 12.5278 25.5938V15.8438C12.5278 15.5205 12.6362 15.2105 12.8292 14.982C13.0222 14.7534 13.284 14.625 13.5569 14.625C13.8299 14.625 14.0917 14.7534 14.2847 14.982C14.4777 15.2105 14.5861 15.5205 14.5861 15.8438ZM20.7611 15.8438V25.5938C20.7611 25.917 20.6527 26.227 20.4597 26.4555C20.2667 26.6841 20.0049 26.8125 19.7319 26.8125C19.459 26.8125 19.1972 26.6841 19.0042 26.4555C18.8112 26.227 18.7028 25.917 18.7028 25.5938V15.8438C18.7028 15.5205 18.8112 15.2105 19.0042 14.982C19.1972 14.7534 19.459 14.625 19.7319 14.625C20.0049 14.625 20.2667 14.7534 20.4597 14.982C20.6527 15.2105 20.7611 15.5205 20.7611 15.8438Z" fill="#94B1EC"/>
</svg>
